<?xml version="1.0" encoding="UTF-8" standalone="no"?>
<!-- Generated by SVGo -->

<svg
   xmlns:dc="http://purl.org/dc/elements/1.1/"
   xmlns:cc="http://creativecommons.org/ns#"
   xmlns:rdf="http://www.w3.org/1999/02/22-rdf-syntax-ns#"
   xmlns:svg="http://www.w3.org/2000/svg"
   xmlns="http://www.w3.org/2000/svg"
   xmlns:sodipodi="http://sodipodi.sourceforge.net/DTD/sodipodi-0.dtd"
   xmlns:inkscape="http://www.inkscape.org/namespaces/inkscape"
   width="210mm"
   height="297mm"
   viewBox="0 0 210 297.00001"
   id="svg2"
   version="1.1"
   inkscape:version="0.92.2 5c3e80d, 2017-08-06"
   sodipodi:docname="layout_master.svg">
  <metadata
     id="metadata56">
    <rdf:RDF>
      <cc:Work
         rdf:about="">
        <dc:format>image/svg+xml</dc:format>
        <dc:type
           rdf:resource="http://purl.org/dc/dcmitype/StillImage" />
        <dc:title />
      </cc:Work>
    </rdf:RDF>
  </metadata>
  <defs
     id="defs54">
    <inkscape:path-effect
       hide_knots="false"
       only_selected="false"
       ignore_radius_0="false"
       use_knot_distance="false"
       flexible="false"
       helper_size="0"
       chamfer_steps="1"
       radius="0.5"
       method="auto"
       fillet_chamfer_values="0,0 | -0.5,1 | -0.5,1 | -0.5,1 | -0.5,1 | -0.5,1 | -0.5,1 | 0,0 | -0.50038916,1 | -0.043940337,1 | -0.0881635,1 | -0.50000005,1 | -0.49999998,1 | -0.041642174,1 | -0.045847756,1 | -0.41954936,1 | -0.5,1 | -0.49999981,1 | -0.50000019,1 | -0.49738222,1 | -0.49738222,1 | -0.49477767,1 | -0.49477767,1 | -0.49738235,1 | -0.49738235,1 | -0.5,1 | -0.5,1 | -0.5,1"
       is_visible="true"
       id="path-effect4439"
       effect="fillet-chamfer" />
    <inkscape:path-effect
       hide_knots="false"
       only_selected="false"
       ignore_radius_0="false"
       use_knot_distance="false"
       flexible="false"
       helper_size="0"
       chamfer_steps="1"
       radius="0.5"
       method="auto"
       fillet_chamfer_values="0,0 | -0.5,1 | -0.5,1 | -0.5,1 | -0.5,1 | -0.5,1 | -0.5,1 | 0,0 | -0.50038916,1 | -0.043940337,1 | -0.0881635,1 | -0.50000005,1 | -0.49999998,1 | -0.041642174,1 | -0.045847756,1 | -0.41954936,1 | -0.5,1 | -0.49999981,1 | -0.50000019,1 | -0.49738222,1 | -0.49738222,1 | -0.49477767,1 | -0.49477767,1 | -0.49738235,1 | -0.49738235,1 | -0.5,1 | -0.5,1 | -0.5,1"
       is_visible="true"
       id="path-effect4424"
       effect="fillet-chamfer" />
    <inkscape:path-effect
       effect="fillet-chamfer"
       id="path-effect4499"
       is_visible="true"
       fillet_chamfer_values="0,0 | -0.5,1 | -0.5,1 | -0.5,1 | -0.5,1 | -0.5,1 | -0.5,1 | 0,0 | -0.50038916,1 | -0.043940337,1 | -0.0881635,1 | -0.50000005,1 | -0.49999998,1 | -0.041642174,1 | -0.045847756,1 | -0.41954936,1 | -0.5,1 | -0.49999981,1 | -0.50000019,1 | -0.49738222,1 | -0.49738222,1 | -0.49477767,1 | -0.49477767,1 | -0.49738235,1 | -0.49738235,1 | -0.5,1 | -0.5,1 | -0.5,1"
       method="auto"
       radius="0.5"
       chamfer_steps="1"
       helper_size="0"
       flexible="false"
       use_knot_distance="false"
       ignore_radius_0="false"
       only_selected="false"
       hide_knots="false" />
    <inkscape:path-effect
       effect="fillet-chamfer"
       id="path-effect4491"
       is_visible="true"
       fillet_chamfer_values="-2.5010807,1 | -2.4948029,1 | -2.5041238,1 | -0.47093398,1 | -0.47093538,1 | -0.46720288,1 | -0.4672016,1 | -2.5000013,1"
       method="auto"
       radius="2.5"
       chamfer_steps="1"
       helper_size="0"
       flexible="false"
       use_knot_distance="false"
       ignore_radius_0="false"
       only_selected="false"
       hide_knots="false" />
    <inkscape:path-effect
       effect="fillet-chamfer"
       id="path-effect4489"
       is_visible="true"
       fillet_chamfer_values="0.05,1 | 1.05,1 | 2.05,1 | 3.05,1 | 4.05,1 | 5.05,1 | 6.05,1 | 7.05,1"
       method="auto"
       radius="2.5"
       chamfer_steps="1"
       helper_size="0"
       flexible="true"
       use_knot_distance="false"
       ignore_radius_0="false"
       only_selected="false"
       hide_knots="false" />
    <inkscape:perspective
       sodipodi:type="inkscape:persp3d"
       inkscape:vp_x="0 : 52.774 : 1"
       inkscape:vp_y="0 : 999.99999 : 0"
       inkscape:vp_z="129.36001 : 52.774 : 1"
       inkscape:persp3d-origin="64.680002 : 35.182667 : 1"
       id="perspective3399" />
  </defs>
  <sodipodi:namedview
     pagecolor="#ffffff"
     bordercolor="#666666"
     borderopacity="1"
     objecttolerance="10"
     gridtolerance="10"
     guidetolerance="10"
     inkscape:pageopacity="0"
     inkscape:pageshadow="2"
     inkscape:window-width="1920"
     inkscape:window-height="1053"
     id="namedview52"
     showgrid="false"
     inkscape:document-units="mm"
     inkscape:snap-bbox="true"
     inkscape:bbox-paths="true"
     inkscape:bbox-nodes="true"
     inkscape:snap-bbox-edge-midpoints="true"
     inkscape:snap-bbox-midpoints="true"
     inkscape:snap-center="true"
     inkscape:zoom="1"
     inkscape:cx="222.42759"
     inkscape:cy="897.68837"
     inkscape:window-x="0"
     inkscape:window-y="27"
     inkscape:window-maximized="1"
     inkscape:current-layer="g4437"
     showguides="false"
     borderlayer="false"
     inkscape:guide-bbox="true"
     inkscape:snap-intersection-paths="true"
     inkscape:object-paths="true"
     inkscape:object-nodes="true"
     inkscape:snap-smooth-nodes="true"
     inkscape:snap-midpoints="true"
     inkscape:snap-object-midpoints="true"
     inkscape:measure-start="145.664,1117.23"
     inkscape:measure-end="145.664,294.156"
     inkscape:lockguides="false"
     inkscape:locked="false">
    <inkscape:grid
       type="xygrid"
       id="grid4380" />
    <sodipodi:guide
       position="113.73334,8.0549971"
       orientation="0,1"
       id="guide4390"
       inkscape:locked="false" />
    <sodipodi:guide
       position="136.47495,4.1215125"
       orientation="0,1"
       id="guide4392"
       inkscape:locked="false" />
    <sodipodi:guide
       position="173.457,282.07984"
       orientation="1,0"
       id="guide4324"
       inkscape:label=""
       inkscape:color="rgb(0,0,255)"
       inkscape:locked="false" />
    <sodipodi:guide
       position="18.559765,193.52896"
       orientation="1,0"
       id="guide4348"
       inkscape:label=""
       inkscape:color="rgb(0,0,255)"
       inkscape:locked="false" />
    <sodipodi:guide
       position="23.071667,287.44002"
       orientation="0,1"
       id="guide4374"
       inkscape:label=""
       inkscape:color="rgb(0,0,255)"
       inkscape:locked="false" />
    <sodipodi:guide
       position="43.18,300.84891"
       orientation="0,1"
       id="guide3454"
       inkscape:locked="false" />
    <sodipodi:guide
       position="40.680262,183.17124"
       orientation="0,1"
       id="guide4275"
       inkscape:locked="false" />
    <sodipodi:guide
       position="97.262067,220.82001"
       orientation="0,1"
       id="guide4389"
       inkscape:locked="false" />
    <sodipodi:guide
       position="112.45276,230.34501"
       orientation="0,1"
       id="guide4393"
       inkscape:locked="false" />
    <sodipodi:guide
       position="125.32446,225.58201"
       orientation="0,1"
       id="guide4395"
       inkscape:locked="false" />
    <sodipodi:guide
       position="25.743401,277.93896"
       orientation="1,0"
       id="guide4469"
       inkscape:locked="false" />
    <sodipodi:guide
       position="64.891199,219.50781"
       orientation="1,0"
       id="guide4428"
       inkscape:locked="false" />
    <sodipodi:guide
       position="18.559765,290.50857"
       orientation="0,1"
       id="guide4571"
       inkscape:locked="false" />
    <sodipodi:guide
       position="176.58643,211.95436"
       orientation="1,0"
       id="guide4573"
       inkscape:locked="false" />
  </sodipodi:namedview>
  <g
     style="display:inline"
     inkscape:label="outline3"
     id="g4437"
     inkscape:groupmode="layer"
     transform="translate(0,191.45201)">
    <path
       sodipodi:nodetypes="ccccccccc"
       inkscape:connector-curvature="0"
       id="path4435"
       d="M 21.060846,-184.96057 H 174.09163 a 2.4948029,2.4948029 45 0 1 2.4948,2.4948 v 73.55529 a 2.5041261,2.5041261 134.99997 0 1 -2.50412,2.50412 l -19.14542,2e-5 a 2.5,2.5 169.33195 0 0 -0.90959,0.17134 l -36.18607,14.134602 a 2.5,2.5 169.33198 0 1 -0.9096,0.171344 l -38.84573,-7e-6 a 2.5,2.5 169.41461 0 0 -0.902873,0.16873 L 41.11593,-77.791978 a 2.4999953,2.4999953 169.4146 0 1 -0.902871,0.168729 l -19.153293,3e-6 a 2.500001,2.500001 44.999996 0 1 -2.500001,-2.500001 V -182.45949 a 2.5010807,2.5010807 135 0 1 2.501081,-2.50108 z"
       style="fill:none;stroke:#000000;stroke-width:0.19999999;stroke-miterlimit:4;stroke-dasharray:none;stroke-dashoffset:0;stroke-opacity:1"
       inkscape:original-d="M 18.559765,-184.96057 H 176.58643 v 78.55421 l -22.12047,2e-5 -37.06339,14.477286 -39.783873,-7e-6 -36.938436,14.305812 -22.120496,3e-6 z" />
  </g>
  <g
     inkscape:groupmode="layer"
     id="layer8"
     inkscape:label="layer 1"
     style="display:inline"
     transform="translate(0,191.45201)">
    <path
       inkscape:original-d="m 135.41207,-115.27201 v -4.762 h -19.05 v -4.763 H 97.262066 v 9.525 h 19.000004 v 4.763 14.237 l -42.080973,-0.03274 -22.805345,4.021198 -20.313517,11.728016 -9.5,-16.454484 20.351597,-11.75 5.824965,-2.17535 17.152401,-3.02445 v -1.31222 h -5.679109 l -2.2e-5,-57.1 h 38.049999 l 0.05,-9.525 h 19.000004 l 0.05,4.762 h 19.00001 l 0.05,9.5255 h 38.05001 v 57.1005 h -38.05002 z"
       id="path4422"
       style="display:inline;fill:none;fill-rule:evenodd;stroke:#000000;stroke-width:0.2;stroke-linecap:butt;stroke-linejoin:miter;stroke-miterlimit:4;stroke-dasharray:none;stroke-opacity:1"
       d="m 135.41207,-115.27201 v -4.262 a 0.5,0.5 45 0 0 -0.5,-0.5 h -18.05 a 0.5,0.5 45 0 1 -0.5,-0.5 v -3.763 a 0.5,0.5 45 0 0 -0.5,-0.5 H 97.762066 a 0.5,0.5 135 0 0 -0.5,0.5 v 8.525 a 0.5,0.5 45 0 0 0.5,0.5 h 18.000004 a 0.5,0.5 45 0 1 0.5,0.5 v 4.263 13.736611 a 0.5,0.5 135.02229 0 1 -0.50039,0.5 l -41.536643,-0.03232 a 0.5,0.5 175.02229 0 0 -0.08721,0.0076 l -22.675248,3.998259 a 0.5,0.5 160 0 0 -0.163176,0.05939 l -19.804152,11.433934 a 0.5,0.5 14.999999 0 1 -0.683013,-0.183013 l -9,-15.588458 a 0.5,0.5 105 0 1 0.183013,-0.683013 l 19.882521,-11.47918 a 0.5,0.5 154.76085 0 1 0.07507,-0.0354 l 5.743004,-2.14474 a 0.5,0.5 164.76082 0 1 0.0881,-0.024 l 16.694075,-2.94364 a 0.5,0.5 129.99997 0 0 0.413175,-0.4924 v -0.39267 a 0.5,0.5 45 0 0 -0.5,-0.5 h -4.679109 a 0.5,0.5 44.999989 0 1 -0.5,-0.5 l -2.2e-5,-56.1 a 0.5,0.5 134.99999 0 1 0.5,-0.5 h 37.052617 a 0.5,0.5 135.15038 0 0 0.499993,-0.49738 l 0.04478,-8.53024 a 0.5,0.5 135.15038 0 1 0.499993,-0.49738 h 18.007842 a 0.5,0.5 44.699214 0 1 0.49997,0.49475 l 0.0396,3.7725 a 0.5,0.5 44.699214 0 0 0.49997,0.49475 h 18.00785 a 0.5,0.5 44.849627 0 1 0.49999,0.49738 l 0.0448,8.53074 a 0.5,0.5 44.849627 0 0 0.49999,0.49738 h 37.05263 a 0.5,0.5 45 0 1 0.5,0.5 v 56.1005 a 0.5,0.5 135 0 1 -0.5,0.5 h -37.05002 a 0.5,0.5 45 0 1 -0.5,-0.5 z"
       inkscape:connector-curvature="0"
       sodipodi:nodetypes="ccccccccccccccccccccccccccccc" />
  </g>
</svg>
