<?xml version="1.0" encoding="UTF-8" standalone="no"?>
<!-- Generated by SVGo -->

<svg
   xmlns:dc="http://purl.org/dc/elements/1.1/"
   xmlns:cc="http://creativecommons.org/ns#"
   xmlns:rdf="http://www.w3.org/1999/02/22-rdf-syntax-ns#"
   xmlns:svg="http://www.w3.org/2000/svg"
   xmlns="http://www.w3.org/2000/svg"
   xmlns:sodipodi="http://sodipodi.sourceforge.net/DTD/sodipodi-0.dtd"
   xmlns:inkscape="http://www.inkscape.org/namespaces/inkscape"
   width="210mm"
   height="297mm"
   viewBox="0 0 210 297.00001"
   id="svg2"
   version="1.1"
   inkscape:version="0.92.2 5c3e80d, 2017-08-06"
   sodipodi:docname="layout_master (4th copy).svg">
  <metadata
     id="metadata56">
    <rdf:RDF>
      <cc:Work
         rdf:about="">
        <dc:format>image/svg+xml</dc:format>
        <dc:type
           rdf:resource="http://purl.org/dc/dcmitype/StillImage" />
        <dc:title />
      </cc:Work>
    </rdf:RDF>
  </metadata>
  <defs
     id="defs54">
    <inkscape:path-effect
       hide_knots="false"
       only_selected="false"
       ignore_radius_0="false"
       use_knot_distance="false"
       flexible="false"
       helper_size="0"
       chamfer_steps="1"
       radius="0.5"
       method="auto"
       fillet_chamfer_values="0,0 | -0.5,1 | -0.5,1 | -0.5,1 | -0.5,1 | -0.5,1 | -0.5,1 | 0,0 | -0.50038916,1 | -0.043940337,1 | -0.0881635,1 | -0.50000005,1 | -0.49999998,1 | -0.041642174,1 | -0.045847756,1 | -0.41954936,1 | -0.5,1 | -0.49999981,1 | -0.50000019,1 | -0.49738222,1 | -0.49738222,1 | -0.49477767,1 | -0.49477767,1 | -0.49738235,1 | -0.49738235,1 | -0.5,1 | -0.5,1 | -0.5,1"
       is_visible="true"
       id="path-effect4439"
       effect="fillet-chamfer" />
    <inkscape:path-effect
       hide_knots="false"
       only_selected="false"
       ignore_radius_0="false"
       use_knot_distance="false"
       flexible="false"
       helper_size="0"
       chamfer_steps="1"
       radius="0.5"
       method="auto"
       fillet_chamfer_values="0,0 | -0.5,1 | -0.5,1 | -0.5,1 | -0.5,1 | -0.5,1 | -0.5,1 | 0,0 | -0.50038916,1 | -0.043940337,1 | -0.0881635,1 | -0.50000005,1 | -0.49999998,1 | -0.041642174,1 | -0.045847756,1 | -0.41954936,1 | -0.5,1 | -0.49999981,1 | -0.50000019,1 | -0.49738222,1 | -0.49738222,1 | -0.49477767,1 | -0.49477767,1 | -0.49738235,1 | -0.49738235,1 | -0.5,1 | -0.5,1 | -0.5,1"
       is_visible="true"
       id="path-effect4424"
       effect="fillet-chamfer" />
    <inkscape:path-effect
       effect="fillet-chamfer"
       id="path-effect4499"
       is_visible="true"
       fillet_chamfer_values="0,0 | -0.5,1 | -0.5,1 | -0.5,1 | -0.5,1 | -0.5,1 | -0.5,1 | 0,0 | -0.50038916,1 | -0.043940337,1 | -0.0881635,1 | -0.50000005,1 | -0.49999998,1 | -0.041642174,1 | -0.045847756,1 | -0.41954936,1 | -0.5,1 | -0.49999981,1 | -0.50000019,1 | -0.49738222,1 | -0.49738222,1 | -0.49477767,1 | -0.49477767,1 | -0.49738235,1 | -0.49738235,1 | -0.5,1 | -0.5,1 | -0.5,1"
       method="auto"
       radius="0.5"
       chamfer_steps="1"
       helper_size="0"
       flexible="false"
       use_knot_distance="false"
       ignore_radius_0="false"
       only_selected="false"
       hide_knots="false" />
    <inkscape:path-effect
       effect="fillet-chamfer"
       id="path-effect4491"
       is_visible="true"
       fillet_chamfer_values="-2.5010807,1 | -2.4948029,1 | -2.5041238,1 | -0.47093398,1 | -0.47093538,1 | -0.46720288,1 | -0.4672016,1 | -2.5000013,1"
       method="auto"
       radius="2.5"
       chamfer_steps="1"
       helper_size="0"
       flexible="false"
       use_knot_distance="false"
       ignore_radius_0="false"
       only_selected="false"
       hide_knots="false" />
    <inkscape:path-effect
       effect="fillet-chamfer"
       id="path-effect4489"
       is_visible="true"
       fillet_chamfer_values="0.05,1 | 1.05,1 | 2.05,1 | 3.05,1 | 4.05,1 | 5.05,1 | 6.05,1 | 7.05,1"
       method="auto"
       radius="2.5"
       chamfer_steps="1"
       helper_size="0"
       flexible="true"
       use_knot_distance="false"
       ignore_radius_0="false"
       only_selected="false"
       hide_knots="false" />
    <inkscape:perspective
       sodipodi:type="inkscape:persp3d"
       inkscape:vp_x="0 : 52.774 : 1"
       inkscape:vp_y="0 : 999.99999 : 0"
       inkscape:vp_z="129.36001 : 52.774 : 1"
       inkscape:persp3d-origin="64.680002 : 35.182667 : 1"
       id="perspective3399" />
  </defs>
  <sodipodi:namedview
     pagecolor="#ffffff"
     bordercolor="#666666"
     borderopacity="1"
     objecttolerance="10"
     gridtolerance="10"
     guidetolerance="10"
     inkscape:pageopacity="0"
     inkscape:pageshadow="2"
     inkscape:window-width="1920"
     inkscape:window-height="1053"
     id="namedview52"
     showgrid="false"
     inkscape:document-units="mm"
     inkscape:snap-bbox="true"
     inkscape:bbox-paths="true"
     inkscape:bbox-nodes="true"
     inkscape:snap-bbox-edge-midpoints="true"
     inkscape:snap-bbox-midpoints="true"
     inkscape:snap-center="true"
     inkscape:zoom="1"
     inkscape:cx="222.42759"
     inkscape:cy="897.68837"
     inkscape:window-x="0"
     inkscape:window-y="27"
     inkscape:window-maximized="1"
     inkscape:current-layer="g4437"
     showguides="false"
     borderlayer="false"
     inkscape:guide-bbox="true"
     inkscape:snap-intersection-paths="true"
     inkscape:object-paths="true"
     inkscape:object-nodes="true"
     inkscape:snap-smooth-nodes="true"
     inkscape:snap-midpoints="true"
     inkscape:snap-object-midpoints="true"
     inkscape:measure-start="145.664,1117.23"
     inkscape:measure-end="145.664,294.156"
     inkscape:lockguides="false"
     inkscape:locked="false">
    <inkscape:grid
       type="xygrid"
       id="grid4380" />
    <sodipodi:guide
       position="113.73334,8.0549971"
       orientation="0,1"
       id="guide4390"
       inkscape:locked="false" />
    <sodipodi:guide
       position="136.47495,4.1215125"
       orientation="0,1"
       id="guide4392"
       inkscape:locked="false" />
    <sodipodi:guide
       position="173.457,282.07984"
       orientation="1,0"
       id="guide4324"
       inkscape:label=""
       inkscape:color="rgb(0,0,255)"
       inkscape:locked="false" />
    <sodipodi:guide
       position="18.559765,193.52896"
       orientation="1,0"
       id="guide4348"
       inkscape:label=""
       inkscape:color="rgb(0,0,255)"
       inkscape:locked="false" />
    <sodipodi:guide
       position="23.071667,287.44002"
       orientation="0,1"
       id="guide4374"
       inkscape:label=""
       inkscape:color="rgb(0,0,255)"
       inkscape:locked="false" />
    <sodipodi:guide
       position="43.18,300.84891"
       orientation="0,1"
       id="guide3454"
       inkscape:locked="false" />
    <sodipodi:guide
       position="40.680262,183.17124"
       orientation="0,1"
       id="guide4275"
       inkscape:locked="false" />
    <sodipodi:guide
       position="97.262067,220.82001"
       orientation="0,1"
       id="guide4389"
       inkscape:locked="false" />
    <sodipodi:guide
       position="112.45276,230.34501"
       orientation="0,1"
       id="guide4393"
       inkscape:locked="false" />
    <sodipodi:guide
       position="125.32446,225.58201"
       orientation="0,1"
       id="guide4395"
       inkscape:locked="false" />
    <sodipodi:guide
       position="25.743401,277.93896"
       orientation="1,0"
       id="guide4469"
       inkscape:locked="false" />
    <sodipodi:guide
       position="64.891199,219.50781"
       orientation="1,0"
       id="guide4428"
       inkscape:locked="false" />
    <sodipodi:guide
       position="18.559765,290.50857"
       orientation="0,1"
       id="guide4571"
       inkscape:locked="false" />
    <sodipodi:guide
       position="176.58643,211.95436"
       orientation="1,0"
       id="guide4573"
       inkscape:locked="false" />
  </sodipodi:namedview>
  <g
     style="display:inline"
     inkscape:label="outline3"
     id="g4437"
     inkscape:groupmode="layer"
     transform="translate(0,191.45201)">
    <path
       sodipodi:nodetypes="ccccccccc"
       inkscape:connector-curvature="0"
       id="path4435"
       d="M 21.060846,-184.96057 H 174.09163 a 2.4948029,2.4948029 45 0 1 2.4948,2.4948 v 73.55529 a 2.5041261,2.5041261 134.99997 0 1 -2.50412,2.50412 l -19.14542,2e-5 a 2.5,2.5 169.33195 0 0 -0.90959,0.17134 l -36.18607,14.134602 a 2.5,2.5 169.33198 0 1 -0.9096,0.171344 l -38.84573,-7e-6 a 2.5,2.5 169.41461 0 0 -0.902873,0.16873 L 41.11593,-77.791978 a 2.4999953,2.4999953 169.4146 0 1 -0.902871,0.168729 l -19.153293,3e-6 a 2.500001,2.500001 44.999996 0 1 -2.500001,-2.500001 V -182.45949 a 2.5010807,2.5010807 135 0 1 2.501081,-2.50108 z"
       style="fill:none;stroke:#000000;stroke-width:0.19999999;stroke-miterlimit:4;stroke-dasharray:none;stroke-dashoffset:0;stroke-opacity:1"
       inkscape:original-d="M 18.559765,-184.96057 H 176.58643 v 78.55421 l -22.12047,2e-5 -37.06339,14.477286 -39.783873,-7e-6 -36.938436,14.305812 -22.120496,3e-6 z" />
  </g>
  <g
     inkscape:groupmode="layer"
     id="layer6"
     inkscape:label="layer 3"
     style="display:inline"
     transform="translate(0,191.45201)">
    <path
       d="m 168.38203,-175.84712 -1.32497,-2.29492 1.32497,-2.29492 2.64994,0 1.32498,2.29492 -1.32498,2.29492 z"
       inkscape:randomized="0"
       inkscape:rounded="0"
       inkscape:flatsided="true"
       sodipodi:arg2="2.6179939"
       sodipodi:arg1="2.0943951"
       sodipodi:r2="2.294919"
       sodipodi:r1="2.6499445"
       sodipodi:cy="-178.14204"
       sodipodi:cx="169.707"
       sodipodi:sides="6"
       id="path4351"
       style="display:inline;fill:none;stroke:#000000;stroke-width:0.2;stroke-miterlimit:4;stroke-dasharray:none;stroke-dashoffset:0;stroke-opacity:1"
       sodipodi:type="star" />
    <path
       sodipodi:type="star"
       style="display:inline;fill:none;stroke:#000000;stroke-width:0.2;stroke-miterlimit:4;stroke-dasharray:none;stroke-dashoffset:0;stroke-opacity:1"
       id="path4353"
       sodipodi:sides="6"
       sodipodi:cx="25.310015"
       sodipodi:cy="-178.14204"
       sodipodi:r1="2.6499445"
       sodipodi:r2="2.294919"
       sodipodi:arg1="2.0943951"
       sodipodi:arg2="2.6179939"
       inkscape:flatsided="true"
       inkscape:rounded="0"
       inkscape:randomized="0"
       d="m 23.985042,-175.84712 -1.324972,-2.29492 1.324972,-2.29492 2.649945,0 1.324972,2.29492 -1.324972,2.29492 z" />
    <path
       d="m 23.987255,-106.46511 -1.324972,-2.29492 1.324972,-2.29492 2.649945,0 1.324972,2.29492 -1.324972,2.29492 z"
       inkscape:randomized="0"
       inkscape:rounded="0"
       inkscape:flatsided="true"
       sodipodi:arg2="2.6179939"
       sodipodi:arg1="2.0943951"
       sodipodi:r2="2.294919"
       sodipodi:r1="2.6499445"
       sodipodi:cy="-108.76003"
       sodipodi:cx="25.312227"
       sodipodi:sides="6"
       id="path4355"
       style="display:inline;fill:none;stroke:#000000;stroke-width:0.2;stroke-miterlimit:4;stroke-dasharray:none;stroke-dashoffset:0;stroke-opacity:1"
       sodipodi:type="star" />
    <path
       d="m 89.237047,-175.84709 -1.324972,-2.29492 1.324972,-2.29492 2.649945,0 1.324972,2.29492 -1.324972,2.29492 z"
       inkscape:randomized="0"
       inkscape:rounded="0"
       inkscape:flatsided="true"
       sodipodi:arg2="2.6179939"
       sodipodi:arg1="2.0943951"
       sodipodi:r2="2.294919"
       sodipodi:r1="2.6499445"
       sodipodi:cy="-178.14201"
       sodipodi:cx="90.562019"
       sodipodi:sides="6"
       id="path4357"
       style="display:inline;fill:none;stroke:#000000;stroke-width:0.2;stroke-miterlimit:4;stroke-dasharray:none;stroke-dashoffset:0;stroke-opacity:1"
       sodipodi:type="star" />
    <path
       sodipodi:type="star"
       style="display:inline;fill:none;stroke:#000000;stroke-width:0.2;stroke-miterlimit:4;stroke-dasharray:none;stroke-dashoffset:0;stroke-opacity:1"
       id="path4359"
       sodipodi:sides="6"
       sodipodi:cx="125.01203"
       sodipodi:cy="-105.03803"
       sodipodi:r1="2.6499445"
       sodipodi:r2="2.294919"
       sodipodi:arg1="2.0943951"
       sodipodi:arg2="2.6179939"
       inkscape:flatsided="true"
       inkscape:rounded="0"
       inkscape:randomized="0"
       d="m 123.68706,-102.74311 -1.32497,-2.29492 1.32497,-2.29492 2.64994,0 1.32498,2.29492 -1.32498,2.29492 z" />
    <polygon
       points="24.055,38.343 10.055,38.343 10.055,24.342 24.055,24.342 "
       style="display:inline;fill:none;stroke:#000000;stroke-width:0.2"
       id="polygon6"
       transform="matrix(-1,0,0,1,181.01707,-189.45201)" />
    <polygon
       points="24.055,57.392 10.055,57.392 10.055,43.392 24.055,43.392 "
       style="display:inline;fill:none;stroke:#000000;stroke-width:0.2"
       id="polygon8"
       transform="matrix(-1,0,0,1,181.01707,-189.45201)" />
    <polygon
       points="24.055,76.443 10.055,76.443 10.055,62.443 24.055,62.443 "
       style="display:inline;fill:none;stroke:#000000;stroke-width:0.2"
       id="polygon10"
       transform="matrix(-1,0,0,1,181.01707,-189.45201)" />
    <polygon
       points="43.105,38.343 29.105,38.343 29.105,24.342 43.105,24.342 "
       style="display:inline;fill:none;stroke:#000000;stroke-width:0.2"
       id="polygon14"
       transform="matrix(-1,0,0,1,181.01707,-189.45201)" />
    <polygon
       points="43.105,57.392 29.105,57.392 29.105,43.392 43.105,43.392 "
       style="display:inline;fill:none;stroke:#000000;stroke-width:0.2"
       id="polygon16"
       transform="matrix(-1,0,0,1,181.01707,-189.45201)" />
    <polygon
       points="43.105,76.443 29.105,76.443 29.105,62.443 43.105,62.443 "
       style="display:inline;fill:none;stroke:#000000;stroke-width:0.2"
       id="polygon18"
       transform="matrix(-1,0,0,1,181.01707,-189.45201)" />
    <polygon
       points="29.105,81.493 43.105,81.493 43.105,95.493 29.105,95.493 "
       style="display:inline;fill:none;stroke:#000000;stroke-width:0.2"
       id="polygon20"
       transform="matrix(-1,0,0,1,142.86707,-194.26501)" />
    <polygon
       points="62.155,28.817 48.155,28.817 48.155,14.817 62.155,14.817 "
       style="display:inline;fill:none;stroke:#000000;stroke-width:0.2"
       id="polygon22"
       transform="matrix(-1,0,0,1,181.01707,-189.45201)" />
    <polygon
       points="62.155,47.867 48.155,47.867 48.155,33.867 62.155,33.867 "
       style="display:inline;fill:none;stroke:#000000;stroke-width:0.2"
       id="polygon24"
       transform="matrix(-1,0,0,1,181.01707,-189.45201)" />
    <polygon
       points="62.155,66.918 48.155,66.918 48.155,52.918 62.155,52.918 "
       style="display:inline;fill:none;stroke:#000000;stroke-width:0.2"
       id="polygon26"
       transform="matrix(-1,0,0,1,181.01707,-189.45201)" />
    <polygon
       points="50.536,95.493 50.536,81.493 64.536,81.493 64.536,95.493 "
       style="display:inline;fill:none;stroke:#000000;stroke-width:0.2"
       id="polygon28"
       transform="matrix(-1,0,0,1,142.96707,-194.26501)" />
    <polygon
       points="81.205,24.055 67.205,24.055 67.205,10.055 81.205,10.055 "
       style="display:inline;fill:none;stroke:#000000;stroke-width:0.2"
       id="polygon30"
       transform="matrix(-1,0,0,1,181.01707,-189.45201)" />
    <polygon
       points="81.205,43.105 67.205,43.105 67.205,29.105 81.205,29.105 "
       style="display:inline;fill:none;stroke:#000000;stroke-width:0.2"
       id="polygon32"
       transform="matrix(-1,0,0,1,181.01707,-189.45201)" />
    <polygon
       points="81.205,62.155 67.205,62.155 67.205,48.155 81.205,48.155 "
       style="display:inline;fill:none;stroke:#000000;stroke-width:0.2"
       id="polygon34"
       transform="matrix(-1,0,0,1,181.01707,-189.45201)" />
    <polygon
       points="88.349,95.493 74.349,95.493 74.349,81.493 88.349,81.493 "
       style="display:inline;fill:none;stroke:#000000;stroke-width:0.2"
       id="polygon36"
       transform="matrix(-0.98480776,0.17364817,0.17364819,0.98480776,125.70639,-204.89475)" />
    <polygon
       points="100.255,33.58 86.255,33.58 86.255,19.58 100.255,19.58 "
       style="display:inline;fill:none;stroke:#000000;stroke-width:0.2"
       id="polygon38"
       transform="matrix(-1,0,0,1,181.01707,-189.45201)" />
    <polygon
       points="100.255,52.63 86.255,52.63 86.255,38.63 100.255,38.63 "
       style="display:inline;fill:none;stroke:#000000;stroke-width:0.2"
       id="polygon40"
       transform="matrix(-1,0,0,1,181.01707,-189.45201)" />
    <polygon
       points="100.255,71.68 86.255,71.68 86.255,57.68 100.255,57.68 "
       style="display:inline;fill:none;stroke:#000000;stroke-width:0.2"
       id="polygon42"
       transform="matrix(-1,0,0,1,181.01707,-189.45201)" />
    <polygon
       points="98.161,81.493 112.161,81.493 112.161,95.493 98.161,95.493 "
       style="display:inline;fill:none;stroke:#000000;stroke-width:0.2"
       id="polygon44"
       transform="matrix(-0.86602542,0.49999999,0.50000002,0.86602539,83.313595,-223.87546)" />
    <polygon
       points="119.305,33.58 105.305,33.58 105.305,19.58 119.305,19.58 "
       style="display:inline;fill:none;stroke:#000000;stroke-width:0.2"
       id="polygon46"
       transform="matrix(-1,0,0,1,181.01707,-189.45201)" />
    <polygon
       points="119.305,52.63 105.305,52.63 105.305,38.63 119.305,38.63 "
       style="display:inline;fill:none;stroke:#000000;stroke-width:0.2"
       id="polygon48"
       transform="matrix(-1,0,0,1,181.01707,-189.45201)" />
    <polygon
       points="119.305,71.68 105.305,71.68 105.305,57.68 119.305,57.68 "
       style="display:inline;fill:none;stroke:#000000;stroke-width:0.2"
       id="polygon50"
       transform="matrix(-1,0,0,1,181.01707,-189.45201)" />
    <path
       sodipodi:nodetypes="ccccccc"
       inkscape:connector-curvature="0"
       id="path4566"
       d="m 25.743401,-172.39095 24.446253,1e-5 v -6.85993 h 6.022354 V -115.272 H 25.743401 Z"
       style="display:inline;fill:none;stroke:#000000;stroke-width:0.2;stroke-miterlimit:4;stroke-dasharray:none;stroke-dashoffset:0;stroke-opacity:1" />
  </g>
</svg>
